<?xml version="1.0" standalone="no"?>
<!DOCTYPE svg PUBLIC "-//W3C//DTD SVG 20010904//EN"
 "http://www.w3.org/TR/2001/REC-SVG-20010904/DTD/svg10.dtd">
<svg version="1.0" xmlns="http://www.w3.org/2000/svg"
 width="296.000000pt" height="296.000000pt" viewBox="0 0 296.000000 296.000000"
 preserveAspectRatio="xMidYMid meet">
<metadata>
Created by potrace 1.14, written by Peter Selinger 2001-2017
</metadata>
<g transform="translate(0.000000,296.000000) scale(0.100000,-0.100000)"
fill="#000000" stroke="none">
<path d="M506 2944 c-3 -8 -6 -672 -6 -1474 0 -1353 1 -1458 17 -1464 9 -4 20
-1 25 6 4 7 8 237 8 511 0 505 0 504 34 498 5 -1 12 2 15 7 3 5 25 31 48 58
88 104 85 101 78 79 -18 -56 -27 -127 -18 -136 8 -8 13 2 18 33 18 108 63 209
115 258 3 3 34 39 70 80 105 122 166 173 265 222 52 26 139 54 189 61 17 2 32
9 34 16 6 17 -48 8 -155 -26 -130 -40 -239 -123 -380 -288 l-43 -50 46 85 c69
127 110 184 170 239 106 97 258 149 439 149 72 0 92 -4 142 -28 80 -40 99 -59
117 -118 13 -45 13 -52 0 -53 -30 -3 -34 -4 -34 -14 0 -5 11 -10 25 -11 14 -1
27 -3 29 -5 2 -2 13 -56 24 -119 24 -136 27 -310 6 -378 -16 -56 -17 -62 -5
-62 18 0 42 100 44 182 3 95 -11 225 -33 320 -5 24 -10 48 -10 54 0 19 130
-11 213 -49 l74 -34 16 -59 c41 -151 51 -264 30 -344 -17 -68 -11 -87 12 -35
31 71 21 256 -20 385 -7 22 -7 22 27 -3 86 -66 183 -212 239 -362 11 -30 24
-55 28 -55 4 0 7 -217 7 -482 -1 -266 1 -493 3 -506 4 -24 26 -40 39 -27 8 7
13 1948 5 1977 -3 12 -322 177 -951 492 -521 260 -957 476 -969 480 -14 5 -23
2 -27 -10z m974 -516 l925 -463 1 -248 0 -247 -25 24 c-50 48 -177 136 -282
196 l-106 61 -42 85 c-23 46 -70 126 -104 176 -72 108 -247 295 -266 284 -8
-5 10 -28 55 -69 36 -33 95 -98 131 -144 64 -82 183 -277 183 -299 0 -8 -17
-4 -47 10 -27 13 -85 38 -130 57 -46 19 -83 38 -83 42 0 5 -14 43 -31 85 -61
154 -147 269 -233 314 -44 23 -117 30 -158 16 -30 -11 -28 -33 2 -23 104 33
207 -26 294 -169 48 -78 102 -203 93 -212 -3 -3 -26 2 -52 11 -25 10 -48 15
-51 12 -9 -9 5 -27 21 -27 7 0 34 -9 59 -19 40 -18 47 -25 59 -68 8 -26 13
-49 12 -51 -2 -2 -20 8 -42 22 -85 55 -199 62 -393 25 -106 -21 -217 -89 -301
-184 -38 -43 -154 -238 -190 -320 -19 -43 -89 -137 -168 -224 l-23 -26 15 25
c138 238 219 400 286 577 45 118 52 130 87 150 48 28 174 78 232 93 50 13 59
36 10 26 -42 -8 -216 -75 -245 -94 -27 -17 -28 -11 -9 52 8 25 14 49 14 51 0
3 3 23 7 45 6 37 12 43 72 76 193 108 338 96 477 -40 31 -30 59 -50 62 -44 9
14 -96 112 -148 139 -65 34 -133 46 -200 37 -64 -9 -182 -51 -211 -76 -31 -27
-30 -5 5 60 46 87 148 188 213 211 28 9 67 17 88 17 36 0 54 19 20 21 -107 6
-206 -48 -291 -159 -14 -19 -44 -69 -66 -112 -34 -65 -51 -86 -105 -125 -97
-71 -173 -158 -293 -334 l-58 -85 0 662 c0 364 1 662 3 662 2 0 419 -208 927
-462z m-517 -450 c-3 -13 -14 -57 -24 -98 -19 -74 -21 -76 -77 -112 -124 -80
-218 -182 -280 -303 l-31 -60 -1 59 c0 55 3 63 67 159 115 173 211 284 298
343 27 19 50 34 51 34 1 0 0 -10 -3 -22z m834 -162 c137 -58 177 -82 190 -113
28 -66 63 -166 60 -169 -2 -3 -28 7 -58 21 -30 13 -78 30 -106 36 -29 7 -53
18 -53 24 0 7 -19 34 -42 60 -40 45 -97 175 -77 175 4 0 43 -15 86 -34z m-897
-63 c0 -9 -36 -106 -54 -148 -8 -16 -28 -62 -45 -101 -44 -103 -176 -347 -228
-424 l-24 -35 3 155 c3 149 5 157 35 222 57 122 121 201 238 291 59 46 75 55
75 40z m1168 -70 c92 -53 208 -132 272 -185 l65 -54 1 -187 c0 -103 -3 -187
-8 -187 -4 0 -8 7 -8 16 0 24 -78 173 -126 241 -24 34 -75 90 -113 123 -40 37
-72 74 -78 93 -6 18 -22 62 -36 100 -14 37 -24 67 -21 67 3 0 26 -12 52 -27z
m-258 -75 c0 -2 -9 -4 -20 -5 -11 -1 -20 4 -20 10 0 7 -3 23 -7 37 -6 24 -5
23 20 -6 15 -18 27 -34 27 -36z"/>
<path d="M1265 1253 l0 -208 -174 -3 c-135 -2 -171 -5 -163 -15 8 -9 89 -12
334 -10 385 2 358 1 358 13 0 6 -32 10 -75 10 l-75 0 0 210 0 210 -103 0 -102
0 0 -207z m181 -10 l-1 -198 -80 0 -79 0 -1 185 c0 102 1 191 3 198 3 8 28 12
82 12 l77 0 -1 -197z"/>
<path d="M599 913 c-5 -97 -2 -342 4 -356 18 -40 27 2 27 129 l0 134 159 0
c136 0 160 -2 165 -16 3 -9 6 -69 6 -134 0 -114 11 -157 28 -111 5 16 7 155 3
253 -2 33 -41 42 -196 44 -82 1 -153 2 -157 3 -5 1 -8 17 -8 36 0 24 -5 35
-15 35 -8 0 -15 -8 -16 -17z"/>
<path d="M1959 913 c-1 -22 -1 -344 0 -360 1 -7 8 -10 16 -7 12 5 15 30 15
140 l0 134 70 0 c63 0 70 2 70 19 0 18 -6 20 -57 17 -76 -4 -83 0 -83 40 0 24
-5 34 -15 34 -8 0 -15 -8 -16 -17z"/>
<path d="M1075 838 c-24 -19 -25 -24 -25 -138 0 -160 -6 -156 201 -153 85 1
160 2 167 2 6 1 12 8 12 16 0 17 3 17 -181 17 -75 0 -142 4 -149 8 -15 9 -20
88 -6 93 6 2 83 3 171 2 88 -1 166 0 173 3 20 7 16 115 -7 143 -17 22 -25 23
-175 24 -142 2 -159 0 -181 -17z m319 -24 c11 -4 16 -19 16 -50 l0 -44 -162 2
-162 3 -1 35 c-2 58 3 60 155 60 76 0 145 -3 154 -6z"/>
<path d="M1540 848 c-29 -11 -41 -44 -38 -106 l3 -57 170 0 c94 0 175 -4 181
-8 11 -7 11 -68 0 -86 -3 -4 -74 -8 -158 -9 -190 0 -178 1 -178 -17 0 -18 -6
-17 188 -17 189 0 192 1 192 104 l0 68 -180 0 -180 0 0 44 c0 31 5 46 16 50 9
3 87 6 175 6 135 0 159 2 159 15 0 8 -6 16 -12 16 -45 6 -322 3 -338 -3z"/>
<path d="M599 478 c-4 -13 -3 -371 1 -376 3 -4 11 -8 18 -9 9 -2 12 20 12 87
0 79 2 90 18 91 91 6 290 3 300 -4 8 -6 12 -37 12 -92 0 -66 3 -82 15 -82 8 0
15 7 16 16 5 127 3 156 -14 178 -18 22 -23 23 -183 23 l-164 0 0 85 c0 69 -3
85 -15 85 -8 0 -15 -1 -16 -2z"/>
<path d="M1504 467 c-2 -7 -3 -94 -2 -192 3 -152 5 -180 18 -180 12 0 15 23
18 136 l3 137 58 0 c32 0 64 -4 72 -8 9 -6 13 -43 13 -136 1 -113 3 -127 19
-130 15 -2 17 10 17 127 0 112 2 129 18 138 20 10 107 9 119 -2 4 -4 8 -63 9
-130 2 -146 0 -137 19 -137 13 0 15 22 15 138 0 176 0 175 -127 172 -48 -2
-121 -2 -160 -2 l-73 2 0 40 c0 29 -4 40 -15 40 -9 0 -18 -6 -21 -13z"/>
<path d="M1067 382 c-14 -15 -17 -41 -17 -133 0 -161 -8 -155 200 -154 207 1
201 -3 199 158 -2 152 6 147 -202 147 -146 0 -166 -2 -180 -18z m333 -27 c7
-8 10 -54 8 -116 l-3 -104 -149 -3 c-88 -1 -153 1 -159 7 -15 15 -15 201 -1
216 17 17 290 17 304 0z"/>
<path d="M1975 380 c-15 -17 -18 -38 -18 -137 -1 -155 -11 -148 209 -148 153
0 169 2 172 18 3 16 -10 17 -166 17 -187 0 -182 -2 -182 66 l0 34 180 0 c164
0 180 2 181 18 10 151 8 152 -196 152 -149 0 -163 -2 -180 -20z m328 -22 c20
-10 24 -83 5 -90 -7 -2 -80 -4 -163 -3 l-150 0 -3 40 c-2 27 1 43 12 51 19 14
272 16 299 2z"/>
</g>
</svg>
